# xmcd
# Track frame offsets:
# 150
# 16963
# 32401
# 49863
# 70896
# 93026
# 107141
# 121368
# 129689
# 145043
# 160024
# 175678
# 193348
#
# Disc length: 2828 seconds
# Revision: 0
# Processed by: cddbd v1.5.2PL0 Copyright (c) Steve Scherf et al.
# Submitted via: VisiTrax 2.10.0.248 - For more info visit www.synapsa.com
#
DISCID=a90b0a0d
DTITLE=Gina Jeffreys - Walks Of Life
DYEAR=2006
DGENRE=Australian Country
TTITLE0=Live It
TTITLE1=The Truth About Lies
TTITLE2=Never Mine (featuring Felicity Urquhart)
TTITLE3=Little Circle
TTITLE4=Walks Of Life
TTITLE5=Stepped Right In It
TTITLE6=Heart Like A Wall
TTITLE7=You Make My Heart Sing
TTITLE8=Song I Never Heard
TTITLE9=A Woman Knows
TTITLE10=On A Good Day
TTITLE11=Evening Star
TTITLE12=Ivy And The Oak
EXTD=
EXTT0=
EXTT1=
EXTT2=
EXTT3=
EXTT4=
EXTT5=
EXTT6=
EXTT7=
EXTT8=
EXTT9=
EXTT10=
EXTT11=
EXTT12=
PLAYORDER=
